<svg width="20" height="20" viewBox="0 0 20 20" fill="none" xmlns="http://www.w3.org/2000/svg">
<path d="M5.00004 18.3333C4.55801 18.3333 4.13409 18.1577 3.82153 17.8452C3.50897 17.5326 3.33337 17.1087 3.33337 16.6667V3.33333C3.33337 2.8913 3.50897 2.46738 3.82153 2.15481C4.13409 1.84225 4.55801 1.66666 5.00004 1.66666H11.6667C11.9305 1.66623 12.1918 1.71799 12.4355 1.81897C12.6792 1.91994 12.9005 2.06813 13.0867 2.25499L16.0767 5.24499C16.2641 5.43125 16.4127 5.65278 16.514 5.89679C16.6152 6.14081 16.6671 6.40247 16.6667 6.66666V16.6667C16.6667 17.1087 16.4911 17.5326 16.1786 17.8452C15.866 18.1577 15.4421 18.3333 15 18.3333H5.00004Z" stroke="#DBEAFE" stroke-width="1.66667" stroke-linecap="round" stroke-linejoin="round"/>
<path d="M11.6666 1.66666V5.83332C11.6666 6.05434 11.7544 6.2663 11.9107 6.42258C12.067 6.57886 12.2789 6.66666 12.5 6.66666H16.6666" stroke="#DBEAFE" stroke-width="1.66667" stroke-linecap="round" stroke-linejoin="round"/>
<path d="M8.33329 7.5H6.66663" stroke="#DBEAFE" stroke-width="1.66667" stroke-linecap="round" stroke-linejoin="round"/>
<path d="M13.3333 10.8333H6.66663" stroke="#DBEAFE" stroke-width="1.66667" stroke-linecap="round" stroke-linejoin="round"/>
<path d="M13.3333 14.1667H6.66663" stroke="#DBEAFE" stroke-width="1.66667" stroke-linecap="round" stroke-linejoin="round"/>
</svg>
