<svg width="18" height="18" viewBox="0 0 20 20" fill="none" xmlns="http://www.w3.org/2000/svg">
  <path d="M7.5 16.6667C3.33333 17.9167 3.33333 14.5833 1.66667 14.1667" stroke="#4A5565" stroke-width="1.66667" stroke-linecap="round" stroke-linejoin="round"/>
  <path d="M13.3333 18.3333V15.1083C13.3646 14.7108 13.3117 14.3112 13.1783 13.9358C13.045 13.5604 12.8343 13.2177 12.5583 12.9292C15.1667 12.6375 17.9167 11.65 17.9167 7.09583C17.9165 5.93105 17.4685 4.81084 16.6667 3.96667C17.0467 2.94833 17.0198 1.82083 16.5917 0.820833C16.5917 0.820833 15.6083 0.529167 13.3333 2.05C11.4235 1.53284 9.41023 1.53284 7.5 2.05C5.225 0.529167 4.24167 0.820833 4.24167 0.820833C3.81355 1.82083 3.78667 2.94833 4.16667 3.96667C3.35888 4.8171 2.9104 5.94654 2.91667 7.12083C2.91667 11.6417 5.66667 12.6292 8.275 12.9542C8.00226 13.2397 7.79348 13.5781 7.66199 13.9485C7.53049 14.3188 7.47941 14.7126 7.5125 15.1042V18.3333" stroke="#4A5565" stroke-width="1.66667" stroke-linecap="round" stroke-linejoin="round"/>
</svg>
