<svg width="18" height="18" viewBox="0 0 20 20" fill="none" xmlns="http://www.w3.org/2000/svg">
  <path d="M8.33333 10.8333C8.69198 11.3131 9.14959 11.7099 9.67589 12.0009C10.2022 12.2918 10.7848 12.4701 11.3855 12.524C11.9862 12.578 12.5912 12.5063 13.1631 12.3137C13.735 12.1211 14.2612 11.8118 14.7083 11.4067L17.2083 8.90667C18.011 8.07595 18.4552 6.96323 18.4459 5.80848C18.4365 4.65373 17.9744 3.54831 17.1584 2.73059C16.3423 1.91287 15.2379 1.44843 14.0832 1.43675C12.9284 1.42507 11.8148 1.86708 10.9825 2.66667L9.55 4.09167" stroke="#4A5565" stroke-width="1.66667" stroke-linecap="round" stroke-linejoin="round"/>
  <path d="M11.6667 9.16667C11.308 8.68689 10.8504 8.29015 10.3241 7.99917C9.79783 7.70818 9.21517 7.52992 8.61449 7.47595C8.01382 7.42198 7.40882 7.49364 6.83689 7.68624C6.26496 7.87885 5.73884 8.18825 5.29167 8.59333L2.79167 11.0933C1.98897 11.9241 1.54478 13.0368 1.5541 14.1915C1.56342 15.3463 2.0255 16.4517 2.84157 17.2694C3.65764 18.0871 4.762 18.5516 5.91678 18.5633C7.07155 18.5749 8.18519 18.1329 9.0175 17.3333L10.4417 15.9083" stroke="#4A5565" stroke-width="1.66667" stroke-linecap="round" stroke-linejoin="round"/>
</svg>
