<svg width="18" height="18" viewBox="0 0 20 20" fill="none" xmlns="http://www.w3.org/2000/svg">
  <path d="M17.0833 13.5417V16.25C17.0833 16.7102 16.7102 17.0833 16.25 17.0833C8.64625 17.0833 2.91667 11.3537 2.91667 3.75C2.91667 3.28976 3.28976 2.91667 3.75 2.91667H6.45833C6.85514 2.91667 7.19953 3.19714 7.28 3.585L7.98333 6.95C8.05707 7.3065 7.88988 7.67176 7.57 7.85L6.23333 8.59167C7.1169 10.1692 8.42083 11.4731 9.99833 12.3567L10.74 11.02C10.9182 10.7001 11.2835 10.5329 11.64 10.6067L15.005 11.31C15.3929 11.3905 15.6733 11.7349 15.6733 12.1317L15.6733 13.5417" stroke="#4A5565" stroke-width="1.66667" stroke-linecap="round" stroke-linejoin="round"/>
</svg>
